/* XPM */
static char *_3d8cfb2626241f6a18ce0acbc22e273uFpc21fskq2yJgmy[] = {
/* columns rows colors chars-per-pixel */
"50 50 70 1 ",
"  c #A37B3E",
". c #A67D41",
"X c #A97F44",
"o c #A68143",
"O c #AA8245",
"+ c #AD8449",
"@ c #AE884C",
"# c #B1864D",
"$ c #B28B4D",
"% c #B98D4E",
"& c #B8914E",
"* c #B68D52",
"= c #B98E54",
"- c #B58C5B",
"; c #B88F5D",
": c #B69052",
"> c #BA9355",
", c #BE9856",
"< c #B6915B",
"1 c #BD955A",
"2 c #BF995A",
"3 c #B58E62",
"4 c #B98F60",
"5 c #B79163",
"6 c #BC9462",
"7 c #C19556",
"8 c #C39C57",
"9 c #C1965C",
"0 c #C39B5D",
"q c #C39E5D",
"w c #C79C5D",
"e c #C69F5C",
"r c #C79C5F",
"t c #C6A056",
"y c #C6A058",
"u c #C5A05C",
"i c #C8A25B",
"p c #C8A15F",
"a c #CAA35E",
"s c #C09762",
"d c #C39762",
"f c #C19960",
"g c #C49B62",
"h c #C29C60",
"j c #C69E60",
"k c #C29B64",
"l c #C19C64",
"z c #C59C65",
"x c #C89B61",
"c c #C89D62",
"v c #CC9F63",
"b c #C99E64",
"n c #C6A060",
"m c #C8A161",
"M c #CAA063",
"N c #CDA062",
"B c #C8A065",
"V c #CBA365",
"C c #CCA466",
"Z c #CDA567",
"A c #CAA168",
"S c #CCA569",
"D c #CFA76A",
"F c #CFA868",
"G c #D1A96B",
"H c #D3AB6D",
"J c #D5AD70",
"K c #D9B173",
"L c #DAB274",
"P c #DCB477",
/* pixels */
"z=++#*19hf6556dbcvc$O+*rj9219rrrr99jMBjBBrjZZjr999",
"A=++#*19f6533;1cvvr+   #99>19rjjjjjMBBMBZMMHHjrrrr",
"B*++#*12f653-;1xvv9+ O.$2119rrrjjjMMBBBBZBSJFr9rrr",
"j$++@*1292<---1xvv0$OO$>1>1rjrjjjjMnBMBBBBBGZ9qjrr",
"q$OO#*19jhhlkf9rMcr>#$$2>>1rBBMjjjnjMMMMBMjZj:$$$*",
"u$OO#*19jjqhh9rrccr1>*:1>129MZBjqjnjrjMMBjrM9$+#$*",
"u$OO#*19jjjjjrrrccr21:>1>292rBZrrjrrrjrjMjrr9$OOO$",
"u$OO#*12jrqqqqrrrrrr211111112MSJSr9rrrrrrrrr9$O..@",
"u$OO@*=2f92299999999q99q9991::2BSMr99992999r9*$$$:",
"n$OO@*=1221122222229rrqrrrH2O  OrP999221229991199j",
"B:OO+@**1111222222229qrrrrZj.O +qHKr>111299rrrr999",
"S>OO+$*>22222222299rjnBBBMLGO..+9BSHB29rrrjjMjrrrr",
"h$OO+@**>=>*******>2999999ZMOOOO:19BM2112222221111",
"$o.O++++#+++++++++OO+$####+#.OOO##*$#:$$$$++++++++",
"OOOOO++++OOOOOOOOOOOOOOOOOOOO+OO+O+OO$##+OOOOO....",
"OOXOOOOOOOOOOOOOOX   .O++OOOOOO.OO...O##+OOOOOOOOO",
"   ...XX......XOOOOOOO. .OOO+++O+OOOOOO.  .++OOOOO",
">:>>>>1111>>>*#+O+$***:>>:**$::$:$>>>11>#$+$$$$###",
"ggrrjjjjMjjjjr>+O++ZKZZZZBMjj99r9rqrrrjr2>:$$:::>>",
"fgrrjjjjzjrrjj1+X+OjJZZMMrrrrrrrrrrrrjjr211::11111",
"qr99h9hff999rr>+X+OrGMprrrrrrrrrrrrrrrjj2>1:111111",
"99292222212299>OX+O9Zrryyyryurrrrrrrrrjj2$1$119922",
"11221><-<<1122*OOO+9Mrytttyypuuuuurrrnjj2$O$ >0000",
"1111><----<111*OOO+2Buyyttiipppuuurrrnrj1+O+ >rrrr",
"1>::>:--<=<11>*OOO#2BuuyyipupMMnMMnnnnrj2OOO >cMcc",
"1>$$**11211121*XOO+2Brrr8pMrnnnrMnjjjjrj9OOO >NMrc",
"9*##$=19rrcrjr>.OO+2zjgf2==9gjj9*+OX*jrj9BB99ZZMMM",
"9=++$*79rNZZZZ1.OO+>jfk66-12dgg2*+OO*jrrrMZBBSZNNN",
"9=#O#%70NNZZZA2XOO+>gfd64;;<2ff2=#O+*jjjrjZJJSZZNN",
"9=#O#%70NNNZAB2OOX+>ff664;;<2fd2=*++>jzjrnSKKSMNMM",
"9=*$=>70MMMZAZ1XXO+>ff66;;;12222>*##>rMMjZSHHBrrrr",
"919rrrrrccMBZb1+XX+>fd61<;<11221>***>9jMZFSBnr2211",
"29gbbccjbbbBZB1+X++=9911<=112111>***19jZSZjr992111",
"1999rrggccbbBb=+XX+*2211111111>>>:=*1rBGZr99992211",
"12gr99999999rr#++++@=11===>>:>**>>:#>jZj921221>>>>",
"++++#+OXXXOOOO++++++@**##@####@@####*1>$+OOO++++++",
"X.....OOOO++++++++O+O+OXXXOOOOXXX.O#*#O.        OO",
"+OXX...   ...X.XOOOOOO............ #$+OOOOOOOO..OO",
"OOOOOOOOOOOOoooOOO++++OOOO+O++>O.+>*#+OOOOOOOOOOOO",
"11>>>>==::::>**$$$**:::>>=>*==**>22****::*$#####$#",
"rrcrr0711129922,11,,229999922219z92>2299992111>:$#",
"rrrr97>::1122222,2,988rrr9f99d9BB**>99999222222>*$",
"rrrcr91::19qnq221>18nqrnnr99fjjz2>:>9g999992222>:$",
"rrrcrr97119992221>>qMuuMMnggzABj91>29jrrr999999>:$",
"rjccrrr0992122111>>qnrnMMMBSHSSAj999BBBMMjnrrrr,:$",
"jjjccMrrr921>>>>>:1qnnnMMBFJSASSBjjzBSZZZZZMMpp8,:",
"rrnnnnuur811>>::112qnnZFZSHHABBBBBjMBZZZSAABMMpt8&",
"rrnnuuuurr92,1111999rrMZGGZMjjjjjjrrjjjjzzzjjrurr:",
"Mrrnnnnnnrrrq89999rrr81:**:129999922221111<;<2gjr>",
"FMMnnnnnnnMnnnrrrrrrrrF8$ +#>12121>>>>**=-----zzg>"
};
