/* XPM */
static char *result[] = {
/* columns rows colors chars-per-pixel */
"50 50 231 2 ",
"   c #3A1A00",
".  c #3E230B",
"X  c #1C272C",
"o  c #072C38",
"O  c #302E2A",
"+  c #25333A",
"@  c #333A3D",
"#  c #432E1A",
"$  c #4A351C",
"%  c #443122",
"&  c #4B3523",
"*  c #4C3A25",
"=  c #4D392A",
"-  c #523C26",
";  c #523D2C",
":  c #4B3D30",
">  c #543F30",
",  c #6C4900",
"<  c #54422D",
"1  c #5A442D",
"2  c #5D492D",
"3  c #47403A",
"4  c #564331",
"5  c #5C4633",
"6  c #5C4933",
"7  c #564B3E",
"8  c #5D4C39",
"9  c #5D503A",
"0  c #62462D",
"q  c #7C592F",
"w  c #604731",
"e  c #624D35",
"r  c #644E3A",
"t  c #63513B",
"y  c #6A563A",
"u  c #6C543C",
"i  c #73573A",
"p  c #735A3D",
"a  c #7B5D3F",
"s  c #7D6038",
"d  c #2F3841",
"f  c #323C42",
"g  c #3D4144",
"h  c #4A4847",
"j  c #554B44",
"k  c #5B4D43",
"l  c #5A534B",
"z  c #565556",
"x  c #6B5541",
"c  c #6B5944",
"v  c #675748",
"b  c #745C43",
"n  c #7B5D42",
"m  c #735E4A",
"M  c #7A5F49",
"N  c #7C6245",
"B  c #776448",
"V  c #7B644B",
"C  c #64615F",
"Z  c #7C6A52",
"A  c #5C6468",
"S  c #6A6565",
"D  c #6F767D",
"F  c #836335",
"G  c #876B37",
"H  c #82653C",
"J  c #846443",
"K  c #896645",
"L  c #856B43",
"P  c #8B6A46",
"I  c #84664B",
"U  c #856B4B",
"Y  c #8B6C4B",
"T  c #926D47",
"R  c #926E4B",
"E  c #8F7147",
"W  c #8D724D",
"Q  c #94724C",
"!  c #9B744E",
"~  c #957948",
"^  c #9D784E",
"/  c #826D54",
"(  c #8C6E52",
")  c #8D7354",
"_  c #8A725A",
"`  c #897559",
"'  c #937453",
"]  c #9B7651",
"[  c #947B55",
"{  c #9D7953",
"}  c #94765B",
"|  c #9D7758",
" . c #957A59",
".. c #9C7C5B",
"X. c #A5784B",
"o. c #A87A4C",
"O. c #A37C53",
"+. c #A47B57",
"@. c #AA7D54",
"#. c #A37E5A",
"$. c #8F7F68",
"%. c #947C62",
"&. c #9B7E62",
"*. c #A07F60",
"=. c #9D8348",
"-. c #978655",
";. c #9D8455",
":. c #93835A",
">. c #9D825D",
",. c #9C8B5D",
"<. c #A0854E",
"1. c #A48754",
"2. c #AB8256",
"3. c #A5815C",
"4. c #AC845A",
"5. c #A28A5D",
"6. c #AC8B5D",
"7. c #B08456",
"8. c #B48857",
"9. c #B1865A",
"0. c #B48A5C",
"q. c #BA8D5D",
"w. c #AC925A",
"e. c #B3955B",
"r. c #BD915E",
"t. c #BA9B5D",
"y. c #968165",
"u. c #9C8462",
"i. c #9E8A65",
"p. c #95826B",
"a. c #9C866B",
"s. c #9E8A6A",
"d. c #9F8C70",
"f. c #9F9077",
"g. c #A38363",
"h. c #AB8662",
"j. c #A38A65",
"k. c #AC8B64",
"l. c #A2876B",
"z. c #A48C6B",
"x. c #AB8D6B",
"c. c #B28760",
"v. c #B38C63",
"b. c #B98E62",
"n. c #B38E69",
"m. c #A79363",
"M. c #A5906C",
"N. c #AC936D",
"B. c #AD996C",
"V. c #B29067",
"C. c #BC9263",
"Z. c #B59A66",
"A. c #BB9D63",
"S. c #B6916A",
"D. c #BC946B",
"F. c #B49B6C",
"G. c #A48D72",
"H. c #A88B70",
"J. c #A59173",
"K. c #AB9472",
"L. c #AE9A74",
"P. c #A6937C",
"I. c #AA957A",
"U. c #AD9A7B",
"Y. c #B39573",
"T. c #BD9772",
"R. c #B39B74",
"E. c #BC9B75",
"W. c #B39578",
"Q. c #B39B7B",
"!. c #BB9C7B",
"~. c #BDA166",
"^. c #AFA17D",
"/. c #B7A375",
"(. c #BBA373",
"). c #B7A27E",
"_. c #BAA37C",
"`. c #C2935E",
"'. c #C29463",
"]. c #C69966",
"[. c #C99A65",
"{. c #C29669",
"}. c #C3996C",
"|. c #CA9B6B",
" X c #C59E73",
".X c #C69E78",
"XX c #C0A76C",
"oX c #C3A37B",
"OX c #CAA479",
"+X c #C2A97C",
"@X c #CCB17B",
"#X c #B39E82",
"$X c #BE9F80",
"%X c #B5A284",
"&X c #BAA484",
"*X c #BDA985",
"=X c #B9A689",
"-X c #BDAB8B",
";X c #BFAA93",
":X c #C2A684",
">X c #C3AB85",
",X c #CAA984",
"<X c #C2AC8C",
"1X c #CBAE8C",
"2X c #CDB385",
"3X c #C6B28C",
"4X c #CBB38E",
"5X c #D3B986",
"6X c #D2B48B",
"7X c #C3AE93",
"8X c #C5B293",
"9X c #CAB494",
"0X c #CEB995",
"qX c #C4B39A",
"wX c #CBB699",
"eX c #CDBB9B",
"rX c #D4BC94",
"tX c #D2BC9B",
"yX c #CFBDA9",
"uX c #D2BEA2",
"iX c #D8C199",
"pX c #E1C799",
"aX c #D5C2A4",
"sX c #DBC5A4",
"dX c #DCC6A9",
"fX c #DDCAAA",
"gX c #E3CEA5",
"hX c #E3CDAB",
"jX c #E4D1AF",
"kX c #E5D3B4",
"lX c #E9D6B6",
/* pixels */
"lXlXlXkXjXaXaXhXrXpXiX@X5X@X*X8X3X0XK.x.7X+X_.U...[ s.9X>XZ.*X:Xh.,X=X!.-XwXfXS.X.4X<XY.R.).&XY.0XkX",
"dXkXlXlXlXQ.U.2Xe.~.w.t.~.t.2X4X(.iX1XM.&XaX0Xz.[ P a.tX+X<.3X4XfX8X] >.fXuXeXW._.tX>.h.x.z.j.U aXlX",
"Y u.eX-XsX:X>X4X6.-X-XQ.>X3X9XaXB.+X<Xx.L.<X&Xz.g.H G.<Xw.j.,X0.:Xu.q 3XdX*X-XU.I.0X<XU.#X8XwXaXsXhX",
") [ -XR.6XD.C.{.OXsX&Xu.qXsXu.;XeXF.>XB.N.K.z.K.N.>.z.).=._.6X Xj.s [ fX5X~.R.-XU.M.K.z.R.l.&XtXj.tX",
"U.M.*XL.).R.*XsXsX0X, [ J.R.E Z P.R./.a. ./ x x V _ e U ~ K.OXD.:.H Q.5XA.w.<Xz.[ W H W F s [ &X>.uX",
"m.m.m.,.,.-./.tXK.<X&X) W u.&Xy.m Z i > < < 4 e 6 < < 4 9 1 n B L } :XOXw.eX9X=XJ.&.p.J.=XL.z.8XU.tX",
":.>.[ m.i.j.^._.j.j.W.R. .[ y.m - - e x b b I I J H a V M u 5 4 ; & F.XX4X<Xj.fXeXi.-XlXaXqXU.=X7XwX",
"wX8X-XgX).J.lXeXs.K.>.M.K./ $ - y v N n J P ( P P P P Y P J J b u 4 < B M.i.&X_.,.:.*X=X-X8X-X#Xz.U.",
"&XQ.&X0XL [ %X<X-X&Xj.N.v % r u b N J Y R Y ) Q T ! ' ) Q Q Y J J m r &   $.R.-.M.^.>XB._.tX8X=XJ.$X",
"7X3XQ.%Xs.s Q :.I.7Xu.t 4 y u i a I Y ' ! ] ..| ! ! ! | { ! R R ( K n i w = N j.U.F.Z.uX0XQ >.j.m.j.",
"[ [ W ..hX8X[ ~ E l.e # x p i J Y &.g.] O.O.3.O.O.O.O.*.#.X.X.R ' P J J b x & Z /.>X;XqXI.=XQ.z.s.=X",
"[ &.>.[ aXiX-XM.>.y & u b N J W g.l...O.2.2.3.2.o.2.3.3.O.O.^ O.H.x.] P J M b $ / p.` L s.aXqX&X7XaX",
"8XeXaXsX*XG B.B./ % u i M P P 3.h.g.O.@.4.@.h.4.@.9.2.h.2.O.2.Y.Q.!.Y.| Y ( J u . y y.U.=X-XQ.[ z.0X",
"m.-././.L.B.i.p $ 6 p N Y Q h.h.+.g.3.2.9.@.h.4.4.4.2.3.4.@.n.$XW.Y.!.h.]  .R n 9 < ) ) L G P U u.0X",
"s.-.:.-.,.,.B.c - b J P  .n.c.O.3.k.2.4.0.4.n.9.4.0.6.4.9.7.4.!.$X!.Y.O.O...! W N * N >.j.K.Q.Q.=XkX",
"kX-Xf.U.s.:.,.9 w P R +.x.k.2.2.4.k.4.2.0.4.n.0.9.0.9.h.9.8.7.4.n.9.2.@.O.g.O.] Y 1 6 J.-XiXR.Q.u.U.",
"fX7XQ.R.9X4Xb % M ! +.#.h.2.7.7.4.h.9.9.b.6.h.8.8.0.0.6.b.0.9.9.h.9.9.2.2.g.4.O.] u - z.W.iX#Xs.#X8X",
"l.1Xb.D.}.D.0 4 T O.3.2.h.6.4.7.4.n.c.c.C.9.n.0.q.C.0.h.C.C.0.9.n.0.0.4.4.k.4.@.O.N - Z a.#XaX/.3XQ.",
"l.#Xl.>.&._ % y ] @.O.4.h.9.4.8.0.S.b.0.r.0.n.r.r.C.0.n.C.r.0.9.n.8.0.0.4.h.v.9.2.T > 1 l.u._.8X-X#X",
">.L q F F P < u ..X.@.2.h.6.0.8.c.S.0.8.q.8.n.C.8.r.q.n.r.r.0.b.x.b.0.0.2.h.4.O.@.R - n {.`.9XQ.N.h.",
"z.K.Q.I.-Xp.  B 4.6.0.v.n.b.C.}.{.T.D.'.{.C.T.{.A.{.{.D.D.}.D.C.D.D.{.C.b.S.b.v.b.3.5 b oX{.1XJ.g.z.",
"5X5X2X2XiXQ.. c 2.3.9.9.q.c.v.C.C.b.C.C.C.{.'.}.|.}. .n.[.{.{.}.{.C.C.n.k.6.3.3.3.} : B K.z.l.K. . .",
"~.w.e.A.~.A.< u O.4.9.4.9.0.8.0.q.q.`.r.r.C.'.`.#.v @ j v j k l h h h g @ f d d f + X J E H W E [ [ ",
"Q.n.W.wXW.z.t u 4.8.8.0.b.`.q.q.`.b.'.].[.[.'.'.q.} j U ..| [ W U I I V M m m c v 7 O u G.J.U.<X&XG.",
"n.n.E.eXW.z.9 5 ^ O.O.2.#.4.@.9.c.@.@.c.b.9.b.c.q.q.| 4.'.b.q.8.0.0.0.9.@.9.4.+.O.Q 4 2 >X<X=X3XQ.Q ",
"+XK.F.F.K.>.6 6 R ! ! ! ' O.! X.@.*.@.@.@.@.#.@.o.@.@.+.@.@.@.X.#.O.X.#.#.| X.T ! P & V x.z.K.M.Q.:X",
"F.6.6.~ ;.' 8 x 4.0.9.0.n.c.C.[.|.D.'.`.`.'.}.{.[.[.[.{.{.`.{.`.D.{.}.oXD.n.0.9.9.] - / N.g.i.j.z.&X",
"M.M.K.M._.a.# M 4.9.0.9.h. X,X,X,XT.`.'.`.'.{.{.`.[.[.D.`.`.`.`.n.}.}.C.b.V.0.9.9.! 5 6 s.z.j.K.=XuX",
"x.N.N.Y.E.K.t u 2.0.9.8.n.$X.XOX,X$Xb.`.`.'.T.'.'.'.`.D.{.`.`.b.E.}.C.q.b.n.0.0.9.O.; p 1.;.6.;.z.yX",
"g.h.M.x.N.u.4 p 1.0.0._ S #X:X.X,X.X`.'.`.b.D.|.[.|.`.D.'.`.`. X!.C.q.q.q.n.0.9.9.O.- y j.>.W u.I.eX",
" .f.s.%XqXp.  b @.0.+.A D S l..X{.n.'.'.`.{.}.[.[.[.{.D.'.{. X XS.C.q.q.b.n.c.0.6.O.4 < P.I.G.7X#Xu.",
"j.j. .!.0XK.r y O.4.%.z z z ( `.b.n.`.`.`.'.T.'.'.'.`.n.'.{.|.b.C.C.q.q.c.k.0.9.9.^ 1 4 _ } Y I.rXX.",
"W W ) j._.5.9 r @.6.&.3.W O...6.{.n.C.'.'.b.D.'.`.'.`.C.'.C.C.'.v.r.q.0.b.S.9.9.9.^ 1 ; B _ I.#X0X<X",
"%X=XI.%X3X` ; u O.0.} &.n.g.} q.C.V.{.C.'.C.S.{.'.'.C.S.'.C.{.C.S.C.0.0.c.h.0.9.0.] ; B N.(.oXR./.0X",
"L./.B.m.,.i.e u O.9.2.+.%.3.9.q.0.S.C.q.q.C.S.'.'.'.C.v.b.`.C.C.n.b.0.0.0.n.9.0.6.Q - y N.M.m._.>X<X",
":.[ ,.:.:.i.8 r ..4.2.8.h.b.0.0.b.n.r.r.`.b.S.C.'.C.0.S.q.`.q.0.n.b.8.0.0.k.4.4.2.R - c K.h.N.K.K.>.",
"L.z.4.S.E.D.2 e ^ 4.2.4.h.6.9.b.9.n.C.r.r.q.S.C.q.q.b.v.b.q.0.0.v.C.7.0.9.h.4.@.2.Q - x j.N.x.x.K.u.",
"g.1XS.S.}.k.0 r ! O.2.4.h.9.9.0.v.n.b.9.q.0.S.C.q.q.q.v.q.0.r.0.n.c.9.0.2.h.@.@.4.R 1 r p.d.-X/._.I.",
"j.G.u.[ [ Y = u ! O.O.2.h.9.2.9.9.n.v.9.r.9.n.9.0.q.2.h.c.0.8.9.k.9.9.0.2.h.O.4.O.P ; w g.n.&X4X>X!.",
"3.W J J H Y < e ] O.@.4.g.4.2.9.6.V.0.0.C.v.n.4.7.q.0.4.b.0.9.4.h.c.4.2.3.h.2.O.O.R & a ].q.1XK.5.>.",
"K.!._.#X8Xp.  u [ 3.4.n.h.9.v.c.v.n.S.C.v.b.b.b.b.D.h.V.{.D.C.S.D.b.b.c.b.n.v.h.4.] < b .XF.&XI.s.s.",
"5X@X@X@X5X(.# e R O.+.O.2.O.#.@.2.v.S.9.2.2.2.2.#.' l I ' ( P I I V V Z V m m m m k O V J.s.u.j. .' ",
"Z.1.w.F.Z.F.6 6 R ] ] O.@.3.@.3.S.n.4.4.4.4.2.4.' j @ j k j 3 l C S h + + + o o o X X B P H R W  . .",
"Y.S. X4XM.l.v < R ] ! ] ] ] @.v.k.O.@.@.4.4.0.4.9.4.V ' 4.@.h.!.W.I.L.| ) ( R ' ( b = t Q.R.&X7X$Xk.",
"N.k.Y.4X%Xu.t = n J J M N I  .' n J K P P I P I K T K I R K } H.&.&.H.( J I K J P b * 9 Q.%XW.Q.N.' ",
"E.Z.B.F._.[ 8 6 Y Q T !  .g...Y ' ..| ! X.] ..] ~ ! ! } ] ! Q h.I.H.&.R R  .R Q ] J # Z M.h.N.M.).8X",
"j.6.5.~ _.3.& r R O.] #.z.#.X.] ] g.@.O.#.#.#.O.O.@.X...] O.O.~ #...X.] O.u.] O.O.P = B j.3.>.K.U.&X",
"m.K.W.k._.s.& e R | X.#.&.X.] Q ! &.#.O.#.O...O.] ] ] ..#.X.O.O.| ] X.! ] g.O.] O.P < 2 u.g.M.B.U.&X",
"M.N.Y.R.E.K.t 4 Q O.O.O.| { ] ! ! *.#.O.O.O...O.X.| ] ..#.O.O.O.| [ X.] O.>.O.O.O.P & p 5.;.j.1.>.>X",
"j.u.j.B.x. .= y ' O.| ] ..#.] ! | g.#.! +.O...O.O.O.O...O.O.#.O...O.] { #.&.+.@.#.P * c N.>.U a.z.L."
};
