/* XPM */
static char *f2cf65c1cea3416b84c6493348141accFjwKEtcdReMiB0DO[] = {
/* columns rows colors chars-per-pixel */
"50 50 223 2 ",
"   c #AE5A00",
".  c #B16A00",
"X  c #B96900",
"o  c #BF7900",
"O  c #BF8824",
"+  c #BD863B",
"@  c #C38300",
"#  c #C88600",
"$  c #CC8A00",
"%  c #D79800",
"&  c #C3891F",
"*  c #D39D15",
"=  c #D3A700",
"-  c #DDA014",
";  c #E7A905",
":  c #F9B700",
">  c #F5BC00",
",  c #F9BA00",
"<  c #FAB90B",
"1  c #EAB21E",
"2  c #FABB16",
"3  c #C48D24",
"4  c #C78D2B",
"5  c #CC932C",
"6  c #D29529",
"7  c #CC9431",
"8  c #CF9834",
"9  c #D39433",
"0  c #D39D31",
"q  c #DD9C39",
"w  c #D3A524",
"e  c #CEA237",
"r  c #D6A236",
"t  c #DAA335",
"y  c #DEA935",
"u  c #D6A23A",
"i  c #DDA43B",
"p  c #DEAB3C",
"a  c #E5A62C",
"s  c #F3BD2B",
"d  c #F8BC29",
"f  c #E3AB34",
"g  c #E2A63C",
"h  c #E3AC3D",
"j  c #EBAD3E",
"k  c #E2B431",
"l  c #E4B13D",
"z  c #EBB33E",
"x  c #EEBB3F",
"c  c #F5BA35",
"v  c #FEBB34",
"b  c #F3BC3F",
"n  c #FCBE3A",
"m  c #F9C100",
"M  c #F6C408",
"N  c #FDC119",
"B  c #F6C124",
"V  c #FAC422",
"C  c #F4C52C",
"Z  c #FBC22D",
"A  c #F4CD2E",
"S  c #EEC23E",
"D  c #EEC83E",
"F  c #F4C334",
"G  c #FCC234",
"H  c #F4C23C",
"J  c #FCC53C",
"K  c #F6CA3E",
"L  c #FEC93E",
"P  c #BD8B44",
"I  c #B2875E",
"U  c #BF9450",
"Y  c #C89F5F",
"T  c #DDA945",
"R  c #D4A456",
"E  c #E4AC42",
"W  c #E8AC4D",
"Q  c #ECB543",
"!  c #EFBA45",
"~  c #EDB44B",
"^  c #E5B84A",
"/  c #F3BD45",
"(  c #FCBE41",
")  c #F4BE4A",
"_  c #EBAC52",
"`  c #E9BA50",
"'  c #F3BF52",
"]  c #C39D62",
"[  c #C5A16E",
"{  c #DFB66B",
"}  c #CBA771",
"|  c #E3BD63",
" . c #DEC154",
".. c #EFC44B",
"X. c #F5C243",
"o. c #FDC545",
"O. c #F3CB45",
"+. c #FEC945",
"@. c #F4C34A",
"#. c #FEC64A",
"$. c #F3CA4C",
"%. c #FEC94D",
"&. c #ECC75C",
"*. c #F3C655",
"=. c #FDC652",
"-. c #F3CB54",
";. c #FECA53",
":. c #F4C559",
">. c #FCC659",
",. c #F3CB5C",
"<. c #FECC5A",
"1. c #FFD354",
"2. c #F8D754",
"3. c #FED15B",
"4. c #D7C36D",
"5. c #E7CE60",
"6. c #F5C766",
"7. c #F6CB63",
"8. c #FBCB64",
"9. c #F4CC6A",
"0. c #FACC6A",
"q. c #F7D264",
"w. c #FAD163",
"e. c #F7D56C",
"r. c #F3D96A",
"t. c #ECC77A",
"y. c #F8C675",
"u. c #F5CE73",
"i. c #FBCC73",
"p. c #F4CC7A",
"a. c #EED679",
"s. c #F4D374",
"d. c #FDD474",
"f. c #F5D37D",
"g. c #F9D47B",
"h. c #F6DB7B",
"j. c #F5DD7B",
"k. c #F5E370",
"l. c #CCB788",
"z. c #CAB090",
"x. c #D5BA97",
"c. c #E0C28A",
"v. c #EBD78A",
"b. c #F5D583",
"n. c #FCD985",
"m. c #F4D58D",
"M. c #FBD68C",
"N. c #F5DC8D",
"B. c #FADA8D",
"V. c #F4DD93",
"C. c #FBDE94",
"Z. c #F3DD9B",
"A. c #F9D998",
"S. c #F6E285",
"D. c #F4E38D",
"F. c #F9E58E",
"G. c #EFE197",
"H. c #F4E394",
"J. c #FBE494",
"K. c #F3E39B",
"L. c #FBE49B",
"P. c #F5EA99",
"I. c #FAEB9E",
"U. c #DDC8B3",
"Y. c #F5D8A5",
"T. c #FBDEA1",
"R. c #E6D3B7",
"E. c #EAD4B8",
"W. c #F8DCB8",
"Q. c #FAE6A5",
"!. c #F7EAA6",
"~. c #FBEAA4",
"^. c #F5E2AB",
"/. c #F9E0A8",
"(. c #F6ECAA",
"). c #F9ECAB",
"_. c #F9F2A9",
"`. c #F5E3B4",
"'. c #F9E6B5",
"]. c #F7EFB2",
"[. c #F8EAB9",
"{. c #FAEBBC",
"}. c #F5F4B5",
"|. c #FCF2B3",
" X c #FDF8B7",
".X c #FCF2BA",
"XX c #E9DAC3",
"oX c #ECDCD9",
"OX c #ECE3CA",
"+X c #F3EBC2",
"@X c #FCEDC4",
"#X c #F6ECCE",
"$X c #FCF4C5",
"%X c #FDFAC4",
"&X c #FCF5CB",
"*X c #FDFCCC",
"=X c #EBE6D4",
"-X c #F4E3D4",
";X c #F5ECD1",
":X c #FAEDD1",
">X c #F2E7D9",
",X c #F4EFDF",
"<X c #FAF2D5",
"1X c #FCFBD4",
"2X c #FBF4DC",
"3X c #F7F8DE",
"4X c #FDFCDC",
"5X c #F5F4E5",
"6X c #F9F7E5",
"7X c #FDFCE2",
"8X c #F6F4EA",
"9X c #FCF5E9",
"0X c #F7FFEE",
"qX c #FDFAEA",
"wX c #FDFBEC",
"eX c #FFFEF2",
"rX c #F9F8F4",
"tX c #FDFEF5",
"yX c #FFFFF5",
"uX c #FEFEFA",
"iX c #FAFEFE",
"pX c #FDFEFD",
"aX c white",
/* pixels */
"aXaXaXaXaXaXaXaXaXaXaXaXaXaXaXaXaXaXaXaXaXaXaXaXaXaXaXaXaXaXaXaXaXaXaXaXaXaXaXaXaXaXaXaXaXaXaXaXaXaX",
"aXaXaXaXaXaXaXaXaXaXaXaXaXaXaXaXaXaXaXaXaXaXaXaXaXaXaXaXaXaXaXuXaXaXaXaXaXaXaXaXaXaXaXaXaXaXaXaXaXaX",
"aXaXaXaXaXaXaXaXaXaXaXaXaXaXuXaXaXiXaXuXyXwXqXqXqXqXqXqXwXaXaXaXaXaXaXaXaXaXaXaXaXaXaXaXaXaXaXaXaXaX",
"aXaXaXaXaXaXaXaXaXaXaXaXaXaXaXaXeX2X{.^.M.r.w.8.8.8.8.0.N.`.;X3XyXaXaXaXaXaXaXaXaXaXaXaXaXaXaXaXaXaX",
"aXaXaXaXaXaXaXaXaXaXaXuXaXyX<X'.B.@.> : , , n o.o.o.H s , : > $.N.{.3XeXaXuXuXaXaXaXaXaXaXaXaXaXaXaX",
"aXaXaXaXaXaXaXaXaXaXaXyX#Xm.>., > H i.C.L.Q.).).).).(.!.L.n.0.n : m ,.G.<XaXaXaXaXaXaXaXaXaXaXaXaXaX",
"aXaXaXaXaXaXaXuXaXaX2XK.-., < 9.Z.).).^.A.B.f.g.g.g.f.n.H.!.).I.D.9., B 9.W.6XaXaXyXaXaXaXaXaXaXaXaX",
"aXaXaXaXaXaXaXiXyX{.,.Z M 7.L.).T.b.3.o.o.G Z G G G G Z G %.8.g.L.].C.>.2 X.f.@XyXeXuXaXaXaXaXaXaXaX",
"aXaXaXaXaXaXaXuX^.D G X.B.].V.6.o.J L +.%.%.;.;.;.;.%.%.+.L G n #.0.J._.n.@.#.X.^.eXaXaXaXaXaXaXaXaX",
"aXaXaXaXaXaXyXY.n o.-.I.Q.7.F J #.+.+.%.#.#.#.#.#.#.#.#.#.%.%.%.#.o.X.9.).(...J X.V.eXaXiXaXaXaXaXaX",
"aXaXaXaXaXeXm.N ( <.I.N.@.o.%.%.#.%.%.#.#.#.+.#.#.#.#.#.#.#.#.#.%.#.%.L @.V.L.-.( > Z.uXiXaXaXaXaXaX",
"aXaXaXaXuXZ.M F 0.~.s.) ;.;.%.#.#.#.%.#.#.#.+.#.#.#.#.#.#.#.#.#.#.#.#.;.#.C j.P.*.#.H ^.aXuXaXaXaXaX",
"aXaXaXaX'.B o.$.P.p.V ;.=.%.#.#.#.#.#.#.#.#.#.#.#.#.#.#.#.#.#.#.#.;.#.#.%.;.s g.P.%.%.S -XaXuXaXaXaX",
"aXaXaX2X:.#.H J.r.F =.#.%.#.#.#.#.#.#.#.#.#.#.#.#.#.#.#.#.#.#.#.;.%.#.#.#.#.=.d j.S.J J y.qXaXuXaXaX",
"aXaXyXN.n #.a.N.n =.o.#.#.#.#.#.#.#.#.#.#.#.#.#.#.#.#.#.#.#.%.;.%.#.#.#.#.#.#.#.G F.s.X.N /.aXuXaXaX",
"aXaX&XF o.>.D.O.#.#.#.#.#.#.#.#.#.#.#.#.#.#.#.#.#.#.#.#.#.%.;.%.#.#.%.#.#.#.+.=.#.6.V.$.G ;.3XiXaXaX",
"aXeXf.#.@.r.r.X.%.#.#.#.#.#.#.#.#.#.#.#.#.#.#.#.#.#.#.#.%.;.#.#.#.#.%.+.+.+.+.#.=.X.g.e.o.J T.iXaXaX",
"aX2XF >.-.k.$.=.#.#.#.#.#.#.#.#.#.#.#.#.#.#.#.#.#.#.#.%.;.#.#.#.#.#.#.#.#.#.#.+.%.#.;.h.=.o.y.yXaXaX",
"aX`.Z %.3.q.o.+.#.#.#.#.L #.#.#.#.#.#.#.#.#.#.#.#.#.#.%.#.#.#.#.#.#.#.#.#.#.#.#.#.#.o.d.3.+.#.:XaXaX",
"uXm.J #.3.,.%.#.#.#.o.,.,.J #.=.#.#.#.#.#.#.#.#.#.%.%.#.#.#.#.#.#.#.#.#.#.#.#.#.#.#.#.8.w.o.C ^.iXaX",
"qX9.J #.3.<.#.#.#.#.,.}.%XL.#.J +.#.%.#.#.#.#.#.%.%.#.#.#.#.#.#.#.#.#.#.#.#.#.#.#.#.#.;.<.%.V b.yXaX",
"2X&.#.%.;.;.#.#.#.#.u.1X7X4X).O.J #.#.#.#.#.#.%.%.#.#.#.#.#.#.#.#.#.#.#.#.#.#.#.#.#.%.%.%.%.Z u.eXaX",
"<X*.#.#.;.%.#.#.#.L Z g.&X4X7X}.,.o.+.#.#.#.%.%.#.#.#.#.#.#.#.#.#.#.#.#.#.#.#.#.#.#.#.%.%.#.G 9.wXaX",
"<Xo.#.#.%.%.#.#.L 6.h.O.u.|.4X0X).J +.#.%.%.%.#.#.#.#.#.#.#.#.#.#.#.#.#.#.#.#.#.#.#.#.%.%.=.J 9.wXaX",
"<XX.#.#.#.#.%.#.#.@X4X.X7.@.].1XL.o.#.#.;.=.#.#.#.#.#.#.#.#.#.#.#.#.#.#.#.#.#.#.#.#.#.#.#.;.o.7.wXaX",
":Xb #.#./ #.%.=.:.|.4X4X%Xi.( w.*.o.#.#.%.#.#.#.#.#.#.#.#.#.#.#.#.#.#.#.#.#.#.#.#.#.#.#./ =.+.,.8XaX",
";Xx +.%.x #.%.%.+.2._.1X1X1XM.2 #.=.#.#.#.#.#.#.#.#.#.#.#.#.#.#.#.#.#.#.#.#.#.#.#.#.#.#.b =.%.` 8XaX",
"<X@.#.%.x o.;.+.%.o.,.Q.*X7X7XK.X.=.;.#.#.#.#.#.#.#.#.#.#.#.#.#.#.#.#.#.#.#.#.#.#.#.#.) / ;.#.&.9XaX",
"7X .J ;.z / ;.#.=.=.o.%.H.4X7X4X).O.$.;.#.#.#.#.#.#.#.#.#.#.#.#.#.#.#.#.#.#.#.#.#.#.%.Q / <.Z a.uXaX",
"0X4.J ;./ l ;.#.#.#.#.o.H b.&X4X*X).,.J #.#.#.#.#.#.#.#.#.#.#.#.#.#.#.#.#.#.#.#.#.#.%.p #.<.s c.aXaX",
"aXY.d ;.#.p %.%.#.#.#.#.#.( f. X1X1X|.8.J #.#.#.#.#.#.#.#.#.#.#.#.#.#.#.#.#.#.#.#.%./ h ;.>.c E.aXaX",
"aX>X- ;.#.! y %.#.%.#.#.;.;.@.8.$X4X1X%Xd.v #.#.#.#.#.#.#.#.#.#.#.#.#.#.#.#.#.#.#.;.p @.;.#.W 6XaXaX",
"aXrX{ o.#.;.r ) ;.#.#.%.;.%.;.X.$.].4X1X&XM.n #.#.#.#.#.#.#.#.#.#.#.#.#.#.#.#.#.%.Q t #.;.c l.yXaXaX",
"aXaX[.% >.;.) 0 ;.#.;.%.%.=.+.A O.S '.7X1X3XC.C L #.#.#.#.#.#.#.#.#.#.#.#.#.#.%.o.0 #.#.;.` =XaXaXaX",
"aXaX6X] %.;.;.E r 3.=.%.%.#.o.N.%XQ.:.L.*X7X1XK.J +.#.#.#.#.#.#.#.#.#.#.#.#.#.;.6 ! #.;.f x.uXaXaXaX",
"aXuXuX+X= ' ;.<.T p ;.%.#.%.K .X7X4X{.@.v.*X4X.Xo.#.#.#.#.#.#.#.#.#.#.#.#.%.%.0 h ;.>.;.w =XaXyXyXaX",
"aXaXaXuXx.% 3.;.;.0 r ;.%.+.+.s.|.1X7X@X5.a.L.e.%.#.#.#.#.#.#.#.#.#.#.#.%.o.5 T ;.;.>.% W.iXuXyXyXaX",
"aXaXaXaX8Xt.l *.#.%.t 5 ) ;.=.o.q.|.1X7X$X$.N o.%.#.#.#.#.#.#.#.#.#.#.;./ 3 ^ ;.;.3.1 z.aXuXuXuXaXaX",
"aXaXaXaXaX1XU f 1.%.%.h & i ;.3.o.-.).4X@X9.#.=.#.#.#.#.#.#.#.#.%.;.%.0 3 ! ;.<.:.* p.rXaXuXuXaXaXaX",
"aXaXaXaXuXaXoX| k ~ ;.%.) 5 4 l #.#.;.d.,.@.%.#.#.#.#.#.%.%.%.%.@.t 3 u ) =.8.>.; ] 7XaXuXaXaXaXaXaX",
"aXaXaXaXaXaXaX4X} $ %.;.;.;./ 5 3 0 z c o.%.;.;.;.;.;.<.=.) h 5 O u ) ;.;.<.T $ m.5XaXaXaXaXaXaXaXaX",
"aXaXaXaXaXaXiXaX5Xv.^ @ #.;.<.%.) p 6 5 4 9 q q q q q 9 7 5 7 E *.;.;.>._ b e x.eXaXaXaXaXaXaXaXaXaX",
"aXaXaXaXaXaXaXuXyXyXOXI c a W >.;.<.;.=.! h g i t g E E ) ;.1.;.>.) @./   t.:XaXaXaXaXaXaXaXaXaXaXaX",
"aXaXaXaXaXaXaXuXyXaXaX6X`.Y . #.g ~ >.>.<.3.1.1.1.1.1.1.;.>.*.! +.@ * p.U.wXaXaXaXaXaXaXaXaXaXaXaXaX",
"aXaXaXaXaXaXaXaXaXaXaXaXuX5XR.A.+ o L 6 9 #.j E Q b o.8 a o.X $ i.z.XXqXaXaXuXaXaXaXaXaXaXaXiXaXaXaX",
"aXaXaXaXaXaXaXaXaXaXaXaXaXaXaXeX>XR.T.[ P <.# X $ ; J . R M.x.XX9XyXaXaXuXaXaXaXaXaXaXaXaXaXaXaXaXaX",
"aXaXaXaXaXaXaXaXaXaXaXaXaXuXyXuXaXaXyX8X,X<X=XoX-X#X<X>X2XqXyXaXaXaXuXuXuXaXaXaXaXaXaXaXaXaXaXaXaXaX",
"aXaXaXaXaXaXaXaXaXaXaXaXaXaXaXuXuXaXaXaXaXaXaXaXaXaXaXaXaXaXiXuXuXuXuXuXaXaXaXaXaXaXaXaXaXaXaXaXaXaX",
"aXaXaXaXaXaXaXaXaXaXaXaXaXaXaXaXaXaXaXaXaXaXaXaXuXaXaXaXaXaXiXaXaXaXaXaXaXaXaXaXaXaXaXaXaXaXaXaXaXaX",
"aXaXaXaXaXaXaXaXaXaXaXaXaXaXaXaXaXaXaXaXaXaXaXaXaXaXaXaXaXaXaXaXaXaXaXaXaXaXaXaXaXaXaXaXaXaXaXaXaXaX"
};
