/* XPM */
static char *result[] = {
/* columns rows colors chars-per-pixel */
"50 50 236 2 ",
"   c #000001",
".  c #0D0000",
"X  c #010417",
"o  c #141017",
"O  c #230000",
"+  c #3A0000",
"@  c #2B1B1D",
"#  c #000023",
"$  c #00002D",
"%  c #000A2F",
"&  c #000138",
"*  c #000B3D",
"=  c #00193F",
"-  c #00243A",
";  c #3F3A31",
":  c #450402",
">  c #4C0000",
",  c #530000",
"<  c #5A0100",
"1  c #510A05",
"2  c #591608",
"3  c #481813",
"4  c #611B02",
"5  c #5E2900",
"6  c #5D3105",
"7  c #542A11",
"8  c #612300",
"9  c #622B01",
"0  c #692F03",
"q  c #663302",
"w  c #693504",
"e  c #683707",
"r  c #6A360A",
"t  c #6C3A0C",
"y  c #713E0E",
"u  c #6A3716",
"i  c #6C3B12",
"p  c #6B3D1A",
"a  c #733E1A",
"s  c #491922",
"d  c #533029",
"f  c #583B33",
"g  c #6D3C23",
"h  c #733D2C",
"j  c #683C32",
"k  c #6E411C",
"l  c #744213",
"z  c #73441B",
"x  c #734623",
"c  c #744823",
"v  c #774A29",
"b  c #7E5324",
"n  c #6A4A3B",
"m  c #734C34",
"M  c #794B33",
"N  c #77543B",
"B  c #001C4D",
"V  c #000F52",
"C  c #002B44",
"Z  c #163B4D",
"A  c #1A3D4E",
"S  c #002751",
"D  c #003558",
"F  c #133D50",
"G  c #1B3F51",
"H  c #2A3F4F",
"J  c #16414F",
"K  c #094051",
"L  c #174051",
"P  c #1B4251",
"I  c #334449",
"U  c #3A454F",
"Y  c #234555",
"T  c #2B4553",
"R  c #2E4957",
"E  c #264A5A",
"W  c #2B4C5C",
"Q  c #394650",
"!  c #3C4852",
"~  c #334B5A",
"^  c #384B58",
"/  c #2C505D",
"(  c #454343",
")  c #4E564F",
"_  c #424D55",
"`  c #7B5945",
"'  c #6C5E59",
"]  c #5F614E",
"[  c #786C53",
"{  c #76695A",
"}  c #5B6369",
"|  c #736864",
" . c #74706B",
".. c #757371",
"X. c #814E2A",
"o. c #855331",
"O. c #875633",
"+. c #80752C",
"@. c #837A3A",
"#. c #855F49",
"$. c #8A7F48",
"%. c #856957",
"&. c #946C5B",
"*. c #957051",
"=. c #8C7568",
"-. c #957D79",
";. c #B79411",
":. c #96833D",
">. c #B48B29",
",. c #A98639",
"<. c #B79637",
"1. c #F59D00",
"2. c #CBA100",
"3. c #F7A700",
"4. c #FCAE00",
"5. c #EDBE00",
"6. c #F4B200",
"7. c #FCB500",
"8. c #FEBC01",
"9. c #FBB80B",
"0. c #FBB514",
"q. c #FEB916",
"w. c #F7B51E",
"e. c #FEB71A",
"r. c #FEB91A",
"t. c #FEBA22",
"y. c #F9B827",
"u. c #FDBB2C",
"i. c #EEB431",
"p. c #FFC10D",
"a. c #FEC214",
"s. c #FCC52B",
"d. c #FAC036",
"f. c #90864D",
"g. c #BAA54D",
"h. c #8F8274",
"j. c #9D8979",
"k. c #A88B6E",
"l. c #A58872",
"z. c #A18F7A",
"x. c #AC9072",
"c. c #A5927C",
"v. c #F3BB51",
"b. c #CBB267",
"n. c #F9C748",
"m. c #D4C06F",
"M. c #F8C866",
"N. c #F8CC76",
"B. c #F6D675",
"V. c #848682",
"C. c #8A8B87",
"Z. c #8A8E8D",
"A. c #99918A",
"S. c #969999",
"D. c #A29686",
"F. c #B0978B",
"G. c #B3A790",
"H. c #B6A49F",
"J. c #969CA1",
"K. c #C7BBA5",
"L. c #C3BBAE",
"P. c #C3BAB1",
"I. c #C0BEBC",
"U. c #FBC984",
"Y. c #F1CF8E",
"T. c #FACA88",
"R. c #FBD288",
"E. c #FBCE92",
"W. c #D3C3A3",
"Q. c #C7C4B1",
"!. c #D4CABB",
"~. c #D5D3BD",
"^. c #EED6A1",
"/. c #E6CDBB",
"(. c #E7D6B9",
"). c #FCD6BE",
"_. c #F5DABB",
"`. c #FDDBBE",
"'. c #F6E4AB",
"]. c #FAE5A8",
"[. c #F9E5B5",
"{. c #FDE2BC",
"}. c #91BEC1",
"|. c #8AC6CA",
" X c #8DC6CD",
".X c #91C7C6",
"XX c #95C8C6",
"oX c #92C6CA",
"OX c #8CC7D2",
"+X c #91C7D0",
"@X c #B4D3D4",
"#X c #C4C9CC",
"$X c #D6D2C2",
"%X c #DAD2C2",
"&X c #DBD5CE",
"*X c #DDD8D2",
"=X c #EDDCC2",
"-X c #E8DCCD",
";X c #FDDDC2",
":X c #F8DAC5",
">X c #FCDEC9",
",X c #E4DCD1",
"<X c #E0DED8",
"1X c #FBDFD0",
"2X c #EFECCA",
"3X c #FEE1C5",
"4X c #F7E6C9",
"5X c #FDE3CA",
"6X c #FDEACD",
"7X c #F6F1C3",
"8X c #ECE4D3",
"9X c #EBE2DA",
"0X c #FCE4D4",
"qX c #F8EAD7",
"wX c #FCECDB",
"eX c #F9F4D6",
"rX c #FCF3DB",
"tX c #EBE6E3",
"yX c #EDEAE4",
"uX c #E5EBEA",
"iX c #F2EDE4",
"pX c #FBEDE1",
"aX c #F3EEE9",
"sX c #E9F4E7",
"dX c #F9F5E4",
"fX c #FCF4EC",
"gX c #FDFBEC",
"hX c #E3EDF4",
"jX c #E4EEF9",
"kX c #EDF4F3",
"lX c #ECF6FA",
"zX c #FBF6F3",
"xX c #F6FAF3",
"cX c #FCFCF6",
"vX c #F5FAF9",
"bX c #FEFFFB",
/* pixels */
"bXbXbXbXvXbXbXbXbXbXbXbXbXcXbXcXbXbXbXbXbXcXbXbXbXbXbXbXcXbXbXbXbXcXcXcXbXbXcXbXbXbXbXcXbXcXbXbXbXbX",
"bXbXkX@X@XlXbXbXcXbXbXbXbXbXbXbXbXbXbXcXbXbXbXbXbXcXbXbXbXbXbXcXvXcXbXbXcXbXbXbXbXbXbXbXbXbXbXbXbXcX",
"bXbXhX|.}.kXbXvXbXbXbXbXbXbXcXbXbXcXbXbXbXbXbXbXbXbXbXbXbXbXcXcXzXcXcXbXbXcXbXbXbXbXbXbXbXbXbXbXbXbX",
"cXbXjX+XoXkXbXbXcXbXbXcXbXbXbXbXbXbXbXbXbXcXbXbXbXbXcXbXbXvXcXcXbXzXcXcXbXbXbXbXbXcXbXbXbXcXbXbXbXbX",
"bXbXjXoXXXkXbXbXbXbXbXbXbXbXbXbXbXbXbXbXbXbXbXbXbXbXbXbXcXcXcXcXbXbXcXbXbXbXbXbXbXbXbXcXbXbXbXbXbXbX",
"bXbXhX+XXXvXbXbXbXcXbXbXbXbXbXbXbXcXvXbXcXcXbXvXvXbXzXzXzXxXvXzXvXbXbXcXbXbXbXbXcXbXbXbXbXbXcXbXbXcX",
"cXbXhX+XoXkXbXbXbXbXbXcXbXbXbXbXbXbXbXbXbXbXbXbXbXbXbXbXbXbXbXbXbXbXbXbXbXbXbXbXbXbXbXbXbXbXbXbXbXbX",
"bXbXhXOXoXkXbXbXbXbXbXbXbXbXbXbXcX*X&X&X&X*X*X&X,X*X,X&X&X&X*X*X&X<XcXbXbXbXbXbXbXbXbXbXbXcXbXbXcXbX",
"bXbXjX X.XkXbXbXbXbXbXbXcXbXbXbXbX%.d j f j f h M M M j d f f f ; [ cXbXbXbXbXbXbXbXbXbXbXbXbXbXbXbX",
"bXbXhX X.XkXbXbXbXbXcXbXiXiXaXiXiX{ 2 x 0 r 9 X.O.O.a 9 i 0 6 p 1 %.qXrXaXaXaXbXbXbXcXbXbXbXbXbXbXbX",
"bXbXhX X.XkXbXbXbXbXbXbXF.4 N v c p r z a t y i O.b i u t u i i y a v c N 2 H.bXbXbXbXbXbXcXbXbXcXbX",
"bXbXhX X.XkXbXbXbXvXzXvXD.: r 8 4 q e q y l y w 0 0 w w w w e w w w 8 8 r > H.zXcXvXcXbXbXbXbXbXbXbX",
"bXbXhXOX|.kXbXbXbXaXh.A.` 9 p t t w w w w X.l w w r w w r w w w w t i i p 0 #.-.A.gXbXbXbXbXbXbXbXbX",
"bXbXhX X|.kXbXcXbXyX< > 9 r w w w w q l y q y l w w t w w t w y w r w w e e w > N gXcXcXbXbXbXbXbXbX",
"bXbXhX X.XkXbXbXbXyXv g p w w w w w l l w w q y a w w t w w r w w w w w e e z a O.G.G.,XbXbXbXbXbXbX",
"bXbXhX X.XkXbXcXbXaXr 5 u q w w w y t q q q q w y l w w w w w w w w w q w q q e q >   !.bXvXbXbXbXbX",
"bXbXjXOXoXkXbXcXbXiXu q z x k q l c x x x z w w w r z c c c c p q t c x x x x x x N d %XbXbXbXbXbXbX",
"bXbXjX}.oXlXbXbXbX9Xu w 4 > < z l , > , > > w w w e 5 < , > > 8 l w , < < > , , < v > %XbXbXbXbXbXbX",
"vXbXhXoXoXkXbXbXbXaXu 5 &.c.=.e 7 j.c.c.z.k.u p k 0 #.k.c.c.D.` 3 m z.c.z.z.z.c.l.x > $XbXbXbXbXbXbX",
"bXbXhXoX.XkXbXcXbXiXk : W.eX!.    -X6X3X6X(.+ < 9 . x.6X4X6XrXD.  ' 6X6X4X6X4X6X=Xv : ~.bXbXbXbXbXbX",
"bXbXjX X.XkXbXbXbXyXg > W.wX!.)  .=X>X).;X(.%.&.&.` G.3X`.;X6XH.( C.;X`.`.`.;X;X=Xm : ~.bXbXbXbXbXbX",
"cXbXhX X.XkXbXbXbXaXv , W.5X).>X>X>X).;X`.;X;X;X3X{.`.`.`.;X`.;X3X3X`.;X;X;X`.3X=Xm : ~.bXbXbXbXbXbX",
"bXbXhX X.XkXbXbXbXyXo.: K.5X).;X;X>X>X>X;X:X;X;X3X;X;X;X;X;X3X;X;X`.{.`.`.3X`.;X=XN 1 $XbXbXbXbXbXbX",
"bXbXjXOXOXlXbXbXbXyXh s K.5X).:X>XpXfXfXcXcXzXzXzXzXzXzXzXzXzXzXzXdX5X;X`.`.`.3X=Xm s $XbXbXbXbXbXbX",
"cXgXsX XXXsXgXcXbXyX4 O K.6X;X;X>XdXbXbXbXbXbXbXbXbXbXbXbXbXbXbXbXfX0X;X;X;X`.;X(.q   ~.bXbXbXbXbXbX",
"].R.B.b.v.N.B.[.bXxX%X$X-X;X`.;X>X0XqXaXbXbXbXbXbXbXbXbXbXtXqX0X0X>X;X;X;X;X;X).3X%X!.aXbXbXbXbXbXbX",
"M.1.4.p.p.7.1.B.cXbXbXbXwX`.`.`.;X;X_.qXbXbXbXbXbXbXbXbXcX>X:X:X>X>X5X4X5X>X>X>X0XbXbXbXbXbXbXbXbXbX",
"7X[.Y.+.>.^.'.7XbXbXvXvX0X)._.`._.:X:X>XqXwXwXwXpXpXpXpX0X:X;XE.N.T.U.T.U.U.U.U.T.E.Y.2XzXbXbXbXbXbX",
"bXbX,X    9XbXcXbXbXbXbXpX;X3X>X3X5X3X3X{.3X3X3X5X3X3X7X>X1X5XM.4.7.7.7.7.7.7.8.8.7.1.'.bXbXbXbXbXbX",
"bXbX8Xj.j.8XfXrXrXiX#X@XI.L.L.P.P.P.P.P.P.P.L.L.L.Q.W.R.E.E.E.v.0.y.r.r.t.r.t.t.t.u.0.B.[.[.[.{.fXbX",
"bXbXfXwXwX>X:X:X;X/.#   & * * * * * * * * * * * = & b p.7.7.7.7.q.r.r.e.q.q.q.r.t.r.r.7.4.4.6.6.eXbX",
"bXbXpX/./.>X0X1XwX8X^ R ^ T T T T T T T T T T T ^ D f.d.r.t.t.e.q.q.q.e.q.e.r.r.r.r.q.y.y.u.t.t.dXbX",
"bXbX,X+ + 8XcXgXbXuX- - Z G G G G G G G G G G A ~ D f.y.q.r.q.r.r.r.q.q.q.q.q.r.r.r.r.r.e.e.e.0.rXbX",
"bXbX<X' ' 9XbXcXbXuX} } ~ G G G H G G G P G A E ~ B @.u.r.w.r.r.r.0.q.q.q.e.e.q.q.q.r.r.r.t.e.w.rXbX",
"vXbXfXtX9XcXvXbXcXxXuXuXZ.% R G G G G P G A E E R B :.a.9.w.q.q.q.e.q.q.q.q.q.e.r.e.q.e.e.e.y.y.eXbX",
"bXbXvXbXbXcXvXbXbXbXbXbXJ.# ~ G P G G A A W W Z R B $.n.s.q.r.r.q.q.q.e.e.e.e.q.q.q.e.q.0.e.7.5.eXbX",
"bXbXcXcXcXvXbXbXbXvXvXbXJ.$ ~ F L P G A R R Y Y G F ) [ @.w.t.e.q.e.r.r.e.e.e.r.t.u.u.u.e.M.7X7XdXbX",
"bXbXbXbXbXbXvXbXbXbXbXbXJ.$ ~ L P G G W E A G W E P K B C i.a.8.p.q.r.w.t.r.q.r.9.4.4.4.3.M.bXbXcXbX",
"cXbXbXbXbXcXbXbXbXbXbXbXJ.$ ~ L L E / Y Z G A P E P Y E I ,.,.,.,.<.y.0.r.r.t.7.v.].'.'.'.4XbXcXbXbX",
"bXbXbXcXbXbXbXbXbXbXvXbXJ.# ~ L P W P J L G G G G L L P J D S D V ) s.p.q.0.t.p.n.gXbXvXbXbXcXcXbXbX",
"bXbXbXbXcXbXbXbXbXbXbXbXJ.  ! ! ^ ! Q Q U U Q Q Q Q Q Q Q _ _ _ I ] g.<.i.s.i.;.b.gXbXzXbXbXbXbXbXbX",
"bXbXbXbXbXbXbXbXbXvXbXbXS.  ( o X                                       2.p.,.# } zXbXbXbXbXzXbXbXbX",
"bXbXbXbXbXbXbXcXbXbXcXbXS.   .Z.V.V.V.V.V.V.V.V.V.V.V.V.V.V.V.V.C.Z.A.Z.m.M.g.o ..zXbXcXcXcXbXvXcXbX",
"bXbXbXbXbXbXbXbXcXbXbXbXJ.  S.bXbXzXbXbXbXvXbXbXbXbXbXvXbXbXvXvXbXbXbXbXcXcXQ.  ..bXbXvXbXbXbXbXcXbX",
"bXbXbXbXbXbXbXbXbXvXtXyXS.. S.bXbXbXbXbXbXbXbXbXbXbXbXvXbXbXbXbXbXbXbXbXuXyX#X@ ..bXbXcXbXbXbXbXbXbX",
"bXbXbXbXbXbXcXbXbXyX[ | n @ D.bXcXcXbXbXbXbXbXvXbXbXvXbXvXbXbXvXvXcXcXzXj.| k.o.| cXbXbXvXbXbXvXbXbX",
"cXbXcXcXcXbXbXbXbXyX7 2 g , z.bXbXbXbXbXbXbXvXbXbXbXbXbXbXvXbXcXbXcXcXcXF.2 X.*.%.vXbXbXvXbXbXbXcXbX",
"bXbXbXbXbXbXbXbXbXcX8X8X8X8X8XcXcXvXbXbXbXbXbXvXbXbXbXbXvXbXcXcXcXcXcXcXpX9X-XqX<XbXcXbXbXbXcXbXbXbX",
"bXbXbXbXbXcXbXbXcXbXcXcXcXcXcXcXbXbXbXbXbXbXcXbXbXcXbXbXbXcXcXbXbXbXcXbXbXbXbXbXcXbXbXbXcXbXbXcXbXbX",
"bXbXbXcXbXbXbXbXbXbXcXcXcXcXbXbXbXbXcXbXbXbXbXbXbXbXbXbXbXbXbXcXbXcXcXbXbXcXzXcXbXbXbXbXbXbXbXbXbXbX"
};
